<svg width="35" height="46" viewBox="0 0 35 46" fill="none" xmlns="http://www.w3.org/2000/svg">
<path d="M0 24H35V40C35 43.3137 32.3137 46 29 46H6C2.68629 46 0 43.3137 0 40V24Z" fill="#7065F0"/>
<path d="M15.9245 2.12909C16.6296 1.17621 16.9822 0.699767 17.4627 0.681813C17.4875 0.680883 17.5125 0.680883 17.5373 0.681813C18.0178 0.699767 18.3704 1.17621 19.0755 2.12909L33.6868 21.8741C34.6744 23.2087 35.1683 23.876 34.928 24.4102C34.9159 24.4371 34.9026 24.4634 34.8882 24.4891C34.6017 25 33.7716 25 32.1113 25H2.88869C1.2284 25 0.398259 25 0.11178 24.4891C0.09738 24.4634 0.0841217 24.4371 0.0720433 24.4102C-0.168255 23.876 0.32555 23.2087 1.31316 21.8741L15.9245 2.12909Z" fill="#7065F0"/>
<path d="M4.92897 29.9524C17.1356 41.3004 26.3071 34.1664 29.367 29.181" stroke="white" stroke-width="3"/>
</svg>
